# xmcd
#
# Track frame offsets: 
#        150
#        15333
#        35210
#        52395
#        69671
#        90222
#        109327
#        122385
#        141758
#        159926
#        177076
#        198038
#        210812
#
# Disc length: 2979 seconds
#
# Revision: 0
# Processed by: cddbd v1.4PL0 Copyright (c) Steve Scherf et al.
# Submitted via: ExactAudioCopy v0.90b4
#
DISCID=a30ba10d
DTITLE=Francesc Burrull - Blanc I Negre
DYEAR=1997
DGENRE=Blues
TTITLE0=Blues En Sol
TTITLE1=El Viatger
TTITLE2=Secret
TTITLE3=Basic Basic
TTITLE4=Gina's Song
TTITLE5=Vols Un Vals
TTITLE6=Blanc I Negre
TTITLE7=Habitacio
TTITLE8=Microclimes
TTITLE9=Referencies
TTITLE10=Olor De Mar
TTITLE11=Pinzellades
TTITLE12=Sol Vermell
EXTD=
EXTT0=
EXTT1=
EXTT2=
EXTT3=
EXTT4=
EXTT5=
EXTT6=
EXTT7=
EXTT8=
EXTT9=
EXTT10=
EXTT11=
EXTT12=
PLAYORDER=
